<svg width="512" height="200" viewBox="0 0 512 200" xmlns="http://www.w3.org/2000/svg">
  <defs>
    <linearGradient id="redGradient" x1="0%" y1="0%" x2="100%" y2="0%">
      <stop offset="0%" style="stop-color:#DC2626;stop-opacity:1" />
      <stop offset="100%" style="stop-color:#EF4444;stop-opacity:1" />
    </linearGradient>
  </defs>
  
  <!-- "WIN FAST" Text - Left Side -->
  <text x="0" y="140" font-family="Arial, sans-serif" font-weight="900" font-size="72" fill="#FFFFFF" letter-spacing="2">
    WIN FAST
  </text>
  
  <!-- "CASINOS" Red Tab Shape -->
  <g>
    <!-- Red rounded rectangle/tab shape with speech bubble style -->
    <path d="M 240 20 L 400 20 Q 460 20 460 60 L 460 140 Q 460 180 420 180 L 400 180 L 240 180 L 240 20 Z" 
          fill="url(#redGradient)" 
          stroke="#FFFFFF" 
          stroke-width="3"/>
    
    <!-- "CASINOS" Text inside red shape -->
    <text x="250" y="130" font-family="Arial, sans-serif" font-weight="900" font-size="48" fill="#FFFFFF" letter-spacing="1">
      CASINOS
    </text>
    
    <!-- Spade icon - simplified and clean -->
    <g transform="translate(430, 100)">
      <path d="M 0 -15 L 8 5 L 5 5 L 5 12 L -5 12 L -5 5 L -8 5 Z" 
            fill="#FFFFFF" 
            opacity="0.95"/>
      <path d="M 0 -15 Q -3 -18 -8 -15 Q -10 -10 -8 -5 Q -5 0 0 5 Q 5 0 8 -5 Q 10 -10 8 -15 Q 3 -18 0 -15" 
            fill="none" 
            stroke="#FFFFFF" 
            stroke-width="1.5" 
            opacity="0.8"/>
    </g>
  </g>
</svg>
